<?xml version="1.0" standalone="no"?>
<!DOCTYPE svg PUBLIC "-//W3C//DTD SVG 20010904//EN"
 "http://www.w3.org/TR/2001/REC-SVG-20010904/DTD/svg10.dtd">
<svg version="1.0" xmlns="http://www.w3.org/2000/svg"
 width="512.000000pt" height="512.000000pt" viewBox="0 0 512.000000 512.000000"
 preserveAspectRatio="xMidYMid meet">
<metadata>
Created by potrace 1.14, written by Peter Selinger 2001-2017
</metadata>
<g transform="translate(0.000000,512.000000) scale(0.100000,-0.100000)"
fill="#000000" stroke="none">
<path d="M2171 5059 c-78 -47 -83 -68 -82 -312 0 -140 4 -185 16 -211 19 -39
60 -71 106 -83 l34 -9 0 -87 c0 -47 3 -88 5 -90 3 -2 46 1 95 8 102 15 325 17
400 5 28 -4 68 -10 90 -12 l40 -3 2 80 c1 44 2 86 2 93 1 6 12 12 24 12 34 0
101 52 118 91 10 25 14 83 14 224 -1 213 -7 240 -67 285 l-33 25 -365 3 c-355
2 -366 2 -399 -19z"/>
<path d="M1397 4500 c-16 -5 -35 -14 -43 -21 -8 -6 -14 -8 -14 -4 0 5 -8 1
-17 -7 -10 -8 -56 -36 -103 -63 -153 -85 -176 -103 -195 -145 -31 -69 -22
-113 47 -230 18 -31 53 -91 77 -133 25 -42 48 -77 51 -77 4 0 75 49 125 88 56
43 255 154 339 188 34 14 65 30 70 34 10 10 -153 296 -191 334 -14 14 -42 30
-62 36 -41 11 -46 11 -84 0z"/>
<path d="M3633 4498 c-48 -16 -82 -59 -171 -217 -76 -133 -87 -161 -60 -161
15 0 193 -88 273 -135 39 -23 110 -70 157 -104 48 -33 89 -61 91 -61 3 0 16
19 30 43 13 23 52 91 87 151 76 131 85 164 64 228 -16 50 -44 76 -129 122 -27
15 -57 31 -65 36 -155 97 -215 118 -277 98z"/>
<path d="M2467 4134 c-1 -1 -44 -5 -95 -8 -52 -3 -97 -8 -100 -10 -4 -2 -27
-7 -52 -10 -258 -36 -571 -161 -810 -325 -293 -200 -539 -484 -686 -790 -73
-153 -100 -224 -139 -364 -21 -77 -60 -282 -64 -337 -7 -96 -7 -349 0 -400 5
-36 11 -81 14 -100 38 -273 139 -550 288 -790 42 -67 50 -78 120 -170 106
-139 299 -325 426 -410 13 -8 40 -28 61 -43 75 -54 338 -189 397 -203 15 -4
33 -10 38 -14 9 -7 72 -29 98 -34 7 -2 19 -5 27 -8 25 -9 93 -27 125 -32 17
-3 55 -10 85 -16 107 -21 167 -25 360 -25 199 0 243 3 387 29 247 45 514 153
748 305 22 14 45 29 50 33 288 215 487 446 639 740 59 115 130 292 142 353 1
6 9 35 18 65 15 53 20 75 32 150 3 19 12 69 19 110 13 73 14 444 1 515 -5 29
-13 75 -23 125 -3 14 -6 34 -8 45 -19 137 -146 459 -249 632 -147 247 -397
502 -651 666 -229 147 -530 262 -770 293 -22 3 -47 8 -55 10 -28 10 -364 25
-373 18z m300 -327 c11 -3 43 -9 70 -13 26 -3 57 -9 68 -11 11 -2 33 -7 49 -9
64 -12 276 -88 358 -129 134 -67 216 -120 337 -214 67 -52 214 -200 256 -256
17 -22 33 -42 36 -45 22 -17 128 -192 174 -285 45 -93 107 -253 120 -313 21
-93 35 -165 40 -207 4 -27 8 -61 11 -75 5 -28 5 -279 0 -325 -7 -57 -17 -120
-32 -190 -8 -38 -17 -81 -20 -94 -11 -56 -69 -212 -107 -291 -39 -80 -124
-229 -137 -240 -3 -3 -23 -30 -45 -60 -104 -145 -255 -288 -425 -402 -93 -63
-261 -150 -350 -183 -66 -24 -247 -74 -294 -80 -23 -3 -48 -8 -56 -10 -68 -18
-339 -24 -440 -11 -168 23 -307 56 -425 101 -84 32 -278 128 -319 158 -186
134 -212 155 -296 239 -247 244 -425 585 -485 928 -15 87 -20 163 -20 295 0
138 3 175 21 305 9 63 68 266 99 342 214 513 628 879 1165 1028 41 11 91 23
110 26 19 3 46 7 60 10 14 2 52 7 85 10 33 4 61 8 63 9 5 4 307 -3 329 -8z"/>
<path d="M2555 3486 c-7 -10 -38 -16 -105 -19 -52 -3 -102 -8 -110 -11 -8 -3
-33 -7 -55 -10 -64 -7 -253 -72 -349 -121 -313 -159 -534 -401 -680 -745 -25
-61 -64 -211 -80 -316 -19 -123 -20 -174 -3 -175 42 -3 435 -4 448 -1 10 2 16
17 18 45 15 275 182 562 411 707 30 19 64 41 75 48 21 13 40 22 90 43 32 13
39 15 70 23 11 2 31 9 45 14 14 5 46 12 71 16 l47 7 -14 -58 c-8 -32 -19 -78
-24 -103 -27 -127 -50 -230 -60 -270 -6 -25 -13 -54 -15 -65 -3 -11 -8 -33
-11 -50 -2 -16 -22 -106 -43 -198 -42 -183 -42 -211 -6 -292 28 -63 81 -117
148 -153 45 -23 63 -27 137 -26 65 0 96 5 130 21 101 47 181 160 183 257 1 51
-6 107 -16 123 -3 4 -8 26 -11 48 -4 22 -15 77 -26 123 -11 46 -22 98 -25 115
-3 18 -12 57 -20 87 -8 30 -17 71 -20 90 -3 19 -11 53 -16 75 -6 22 -12 47
-14 55 -2 8 -11 49 -20 90 -8 41 -18 88 -22 104 l-6 28 44 -7 c73 -12 170 -45
251 -85 76 -37 202 -126 245 -172 l23 -24 -110 -109 c-61 -60 -110 -112 -110
-115 0 -5 703 -6 735 -1 10 1 15 741 5 741 -2 0 -45 -40 -95 -89 l-90 -90 -70
65 c-112 104 -303 223 -440 275 -47 17 -61 22 -70 25 -5 1 -42 11 -82 22 -40
11 -98 24 -130 28 -32 4 -61 9 -65 10 -5 1 -39 2 -77 3 -54 1 -70 5 -73 16 -3
13 -4 14 -13 1z"/>
<path d="M3489 2030 c-2 -41 -4 -59 -13 -107 -4 -24 -8 -46 -8 -50 -2 -40
-101 -273 -120 -281 -5 -2 -8 -8 -8 -14 0 -25 -145 -183 -225 -246 -46 -36
-184 -108 -251 -131 -95 -33 -210 -52 -309 -50 -79 1 -112 5 -214 25 -13 3
-32 9 -43 15 -10 5 -18 8 -18 5 0 -8 -162 63 -180 79 -9 8 -20 15 -25 15 -12
0 -125 89 -157 124 l-28 30 28 29 c15 16 65 67 112 113 l85 84 -378 0 -377 0
0 -370 c0 -203 4 -370 8 -370 4 0 47 40 95 89 l87 89 72 -69 c39 -38 75 -69
80 -69 4 0 16 -8 26 -17 9 -10 42 -34 72 -53 30 -19 58 -38 61 -43 3 -5 9 -8
13 -8 3 1 36 -14 74 -33 65 -33 231 -93 282 -102 14 -3 41 -10 60 -16 19 -6
130 -12 245 -14 211 -3 225 -1 400 40 63 14 219 76 227 90 4 6 8 7 8 3 0 -18
195 105 288 182 90 75 118 104 197 202 70 87 153 223 189 309 10 25 24 59 31
75 20 45 47 140 61 215 2 14 7 31 9 39 3 7 8 60 11 117 l6 104 -236 0 -236 0
-1 -30z"/>
</g>
</svg>
